<?xml version="1.0" encoding="UTF-8"?>
<svg xmlns="http://www.w3.org/2000/svg" viewBox="0 0 660 680" width="660" height="680">

  <defs>
    <marker id="arrow" markerWidth="10" markerHeight="7" refX="9" refY="3.5" orient="auto">
      <polygon points="0 0, 10 3.5, 0 7" fill="#6B7280"/>
    </marker>
    <marker id="arrow-dashed" markerWidth="10" markerHeight="7" refX="9" refY="3.5" orient="auto">
      <polygon points="0 0, 10 3.5, 0 7" fill="#9CA3AF"/>
    </marker>
    <linearGradient id="bg" x1="0%" y1="0%" x2="100%" y2="100%">
      <stop offset="0%" style="stop-color:#F9FAFB"/>
      <stop offset="100%" style="stop-color:#FFFFFF"/>
    </linearGradient>
    <filter id="shadow" x="-20%" y="-20%" width="140%" height="140%">
      <feDropShadow dx="0" dy="2" stdDeviation="3" flood-opacity="0.1"/>
    </filter>
  </defs><rect width="660" height="680" fill="url(#bg)"/>
<text x="330" y="24" text-anchor="middle" font-size="16" font-weight="600" fill="#111827" font-family="Inter, sans-serif">Partner Price Integrity — Scraping Pipeline</text>
<text x="330" y="40" text-anchor="middle" font-size="11" fill="#6B7280" font-family="Inter, sans-serif">Architecture Diagram</text>
  <rect x="40" y="55" width="400" height="350" rx="12" ry="12"
    fill="#FFF3E0" fill-opacity="0.2" stroke="#F57C00" stroke-width="1.5" stroke-dasharray="6,3"/>
  <text x="52" y="75" font-size="10" font-weight="600" fill="#F57C00" font-family="Inter, sans-serif" text-transform="uppercase" letter-spacing="0.08em">Daily Pipeline</text>
  <rect x="40" y="435" width="200" height="90" rx="12" ry="12"
    fill="#FFF3E0" fill-opacity="0.2" stroke="#F57C00" stroke-width="1.5" stroke-dasharray="6,3"/>
  <text x="52" y="455" font-size="10" font-weight="600" fill="#F57C00" font-family="Inter, sans-serif" text-transform="uppercase" letter-spacing="0.08em">Weekly Audit</text>
  <rect x="270" y="435" width="170" height="90" rx="12" ry="12"
    fill="#F3E5F5" fill-opacity="0.2" stroke="#7B1FA2" stroke-width="1.5" stroke-dasharray="6,3"/>
  <text x="282" y="455" font-size="10" font-weight="600" fill="#7B1FA2" font-family="Inter, sans-serif" text-transform="uppercase" letter-spacing="0.08em">Output</text>
  <rect x="470" y="435" width="150" height="90" rx="12" ry="12"
    fill="#FFF8E1" fill-opacity="0.2" stroke="#FF8F00" stroke-width="1.5" stroke-dasharray="6,3"/>
  <text x="482" y="455" font-size="10" font-weight="600" fill="#FF8F00" font-family="Inter, sans-serif" text-transform="uppercase" letter-spacing="0.08em">Reports</text>
  <line x1="115" y1="125" x2="105" y2="145" stroke="#6B7280" stroke-width="1.5" marker-end="url(#arrow)" opacity="0.7"/>
  <text x="110" y="129" text-anchor="middle" font-size="9" fill="#6B7280" font-family="Inter, sans-serif">Schedule</text>
  <line x1="105" y1="195" x2="225" y2="145" stroke="#6B7280" stroke-width="1.5" marker-end="url(#arrow)" opacity="0.7"/>
  <text x="165" y="164" text-anchor="middle" font-size="9" fill="#6B7280" font-family="Inter, sans-serif">Offers</text>
  <line x1="225" y1="195" x2="355" y2="145" stroke="#6B7280" stroke-width="1.5" marker-end="url(#arrow)" opacity="0.7"/>
  <text x="290" y="164" text-anchor="middle" font-size="9" fill="#6B7280" font-family="Inter, sans-serif">URLs</text>
  <line x1="355" y1="195" x2="105" y2="215" stroke="#6B7280" stroke-width="1.5" marker-end="url(#arrow)" opacity="0.7"/>
  <text x="230" y="199" text-anchor="middle" font-size="9" fill="#6B7280" font-family="Inter, sans-serif">HTML</text>
  <line x1="105" y1="265" x2="225" y2="215" stroke="#6B7280" stroke-width="1.5" marker-end="url(#arrow)" opacity="0.7"/>
  <text x="165" y="234" text-anchor="middle" font-size="9" fill="#6B7280" font-family="Inter, sans-serif">Matches</text>
  <line x1="225" y1="265" x2="345" y2="215" stroke="#6B7280" stroke-width="1.5" marker-end="url(#arrow)" opacity="0.7"/>
  <text x="285" y="234" text-anchor="middle" font-size="9" fill="#6B7280" font-family="Inter, sans-serif">Prices</text>
  <line x1="345" y1="265" x2="115" y2="285" stroke="#6B7280" stroke-width="1.5" marker-end="url(#arrow)" opacity="0.7"/>
  <text x="230" y="269" text-anchor="middle" font-size="9" fill="#6B7280" font-family="Inter, sans-serif">Store</text>
  <line x1="345" y1="265" x2="245" y2="285" stroke="#6B7280" stroke-width="1.5" marker-end="url(#arrow)" opacity="0.7"/>
  <text x="295" y="269" text-anchor="middle" font-size="9" fill="#6B7280" font-family="Inter, sans-serif">Archive</text>
  <line x1="140" y1="515" x2="105" y2="145" stroke="#6B7280" stroke-width="1.5" marker-end="url(#arrow)" opacity="0.7"/>
  <text x="122.5" y="324" text-anchor="middle" font-size="9" fill="#6B7280" font-family="Inter, sans-serif">Classify</text>
  <line x1="225" y1="265" x2="355" y2="455" stroke="#6B7280" stroke-width="1.5" marker-end="url(#arrow)" opacity="0.7"/>
  <text x="290" y="354" text-anchor="middle" font-size="9" fill="#6B7280" font-family="Inter, sans-serif">Results</text>
  <line x1="345" y1="265" x2="550" y2="455" stroke="#6B7280" stroke-width="1.5" marker-end="url(#arrow)" opacity="0.7"/>
  <text x="447.5" y="354" text-anchor="middle" font-size="9" fill="#6B7280" font-family="Inter, sans-serif">Generate</text>
  <rect x="55" y="75" width="120" height="50" rx="10" ry="10"
    fill="#FFF3E0" stroke="#F57C00" stroke-width="1.5"/>
  <circle cx="115" cy="95" r="14" fill="#017CEE"/>
  <text x="115" y="99" text-anchor="middle" font-size="11" font-weight="bold" fill="white" font-family="Inter, sans-serif">A</text>
  <text x="115" y="113" text-anchor="middle" font-size="11" font-weight="500" fill="#E65100" font-family="Inter, sans-serif">Airflow</text>
  <rect x="55" y="145" width="100" height="50" rx="10" ry="10"
    fill="#E0F2F1" stroke="#00838F" stroke-width="1.5"/>
  <circle cx="105" cy="165" r="14" fill="#3776AB"/>
  <text x="105" y="169" text-anchor="middle" font-size="11" font-weight="bold" fill="white" font-family="Inter, sans-serif">P</text>
  <text x="105" y="183" text-anchor="middle" font-size="11" font-weight="500" fill="#004D40" font-family="Inter, sans-serif">Ingest</text>
  <rect x="175" y="145" width="100" height="50" rx="10" ry="10"
    fill="#E0F2F1" stroke="#00838F" stroke-width="1.5"/>
  <circle cx="225" cy="165" r="14" fill="#3776AB"/>
  <text x="225" y="169" text-anchor="middle" font-size="11" font-weight="bold" fill="white" font-family="Inter, sans-serif">P</text>
  <text x="225" y="183" text-anchor="middle" font-size="11" font-weight="500" fill="#004D40" font-family="Inter, sans-serif">Normalize</text>
  <rect x="295" y="145" width="120" height="50" rx="10" ry="10"
    fill="#E0F2F1" stroke="#00838F" stroke-width="1.5"/>
  <circle cx="355" cy="165" r="14" fill="#9CA3AF" opacity="0.3"/>
  <text x="355" y="169" text-anchor="middle" font-size="10" fill="#6B7280" font-family="Inter, sans-serif">?</text>
  <text x="355" y="183" text-anchor="middle" font-size="11" font-weight="500" fill="#004D40" font-family="Inter, sans-serif">Scrape</text>
  <rect x="55" y="215" width="100" height="50" rx="10" ry="10"
    fill="#E0F2F1" stroke="#00838F" stroke-width="1.5"/>
  <circle cx="105" cy="235" r="14" fill="#3776AB"/>
  <text x="105" y="239" text-anchor="middle" font-size="11" font-weight="bold" fill="white" font-family="Inter, sans-serif">P</text>
  <text x="105" y="253" text-anchor="middle" font-size="11" font-weight="500" fill="#004D40" font-family="Inter, sans-serif">Match</text>
  <rect x="175" y="215" width="100" height="50" rx="10" ry="10"
    fill="#E0F2F1" stroke="#00838F" stroke-width="1.5"/>
  <circle cx="225" cy="235" r="14" fill="#3776AB"/>
  <text x="225" y="239" text-anchor="middle" font-size="11" font-weight="bold" fill="white" font-family="Inter, sans-serif">P</text>
  <text x="225" y="253" text-anchor="middle" font-size="11" font-weight="500" fill="#004D40" font-family="Inter, sans-serif">Compare</text>
  <rect x="295" y="215" width="100" height="50" rx="10" ry="10"
    fill="#E0F2F1" stroke="#00838F" stroke-width="1.5"/>
  <circle cx="345" cy="235" r="14" fill="#3776AB"/>
  <text x="345" y="239" text-anchor="middle" font-size="11" font-weight="bold" fill="white" font-family="Inter, sans-serif">P</text>
  <text x="345" y="253" text-anchor="middle" font-size="11" font-weight="500" fill="#004D40" font-family="Inter, sans-serif">Report Gen</text>
  <rect x="55" y="285" width="120" height="50" rx="10" ry="10"
    fill="#F3E5F5" stroke="#7B1FA2" stroke-width="1.5"/>
  <circle cx="115" cy="305" r="14" fill="#FFCC01"/>
  <text x="115" y="309" text-anchor="middle" font-size="11" font-weight="bold" fill="white" font-family="Inter, sans-serif">C</text>
  <text x="115" y="323" text-anchor="middle" font-size="11" font-weight="500" fill="#4A148C" font-family="Inter, sans-serif">ClickHouse</text>
  <rect x="200" y="285" width="90" height="50" rx="10" ry="10"
    fill="#F3E5F5" stroke="#7B1FA2" stroke-width="1.5"/>
  <circle cx="245" cy="305" r="14" fill="#000000"/>
  <text x="245" y="309" text-anchor="middle" font-size="11" font-weight="bold" fill="white" font-family="Inter, sans-serif">J</text>
  <text x="245" y="323" text-anchor="middle" font-size="11" font-weight="500" fill="#4A148C" font-family="Inter, sans-serif">Raw HTML</text>
  <rect x="55" y="455" width="170" height="60" rx="10" ry="10"
    fill="#FFF3E0" stroke="#F57C00" stroke-width="1.5"/>
  <circle cx="140" cy="475" r="14" fill="#017CEE"/>
  <text x="140" y="479" text-anchor="middle" font-size="11" font-weight="bold" fill="white" font-family="Inter, sans-serif">A</text>
  <text x="140" y="503" text-anchor="middle" font-size="11" font-weight="500" fill="#E65100" font-family="Inter, sans-serif">Partner Audit</text>
  <rect x="285" y="455" width="140" height="60" rx="10" ry="10"
    fill="#F3E5F5" stroke="#7B1FA2" stroke-width="1.5"/>
  <circle cx="355" cy="475" r="14" fill="#FFCC01"/>
  <text x="355" y="479" text-anchor="middle" font-size="11" font-weight="bold" fill="white" font-family="Inter, sans-serif">C</text>
  <text x="355" y="503" text-anchor="middle" font-size="11" font-weight="500" fill="#4A148C" font-family="Inter, sans-serif">ClickHouse</text>
  <rect x="485" y="455" width="130" height="60" rx="10" ry="10"
    fill="#FFF8E1" stroke="#FF8F00" stroke-width="1.5"/>
  <circle cx="550" cy="475" r="14" fill="#3776AB"/>
  <text x="550" y="479" text-anchor="middle" font-size="11" font-weight="bold" fill="white" font-family="Inter, sans-serif">P</text>
  <text x="550" y="503" text-anchor="middle" font-size="11" font-weight="500" fill="#E65100" font-family="Inter, sans-serif">HTML/Excel</text>
  <rect x="490" y="550" width="155" height="110" rx="8" fill="white" stroke="#E5E7EB"/>
  <text x="500" y="568" font-size="10" font-weight="600" fill="#374151" font-family="Inter, sans-serif">LAYER LEGEND</text>
  <rect x="500" y="582" width="12" height="12" rx="2" fill="#E3F2FD" stroke="#1976D2"/>
  <text x="518" y="592" font-size="9" fill="#374151" font-family="Inter, sans-serif">DATA SOURCES</text>
  <rect x="500" y="596" width="12" height="12" rx="2" fill="#E8F5E9" stroke="#388E3C"/>
  <text x="518" y="606" font-size="9" fill="#374151" font-family="Inter, sans-serif">INGESTION</text>
  <rect x="500" y="610" width="12" height="12" rx="2" fill="#FFF3E0" stroke="#F57C00"/>
  <text x="518" y="620" font-size="9" fill="#374151" font-family="Inter, sans-serif">ORCHESTRATION</text>
  <rect x="500" y="624" width="12" height="12" rx="2" fill="#E0F2F1" stroke="#00838F"/>
  <text x="518" y="634" font-size="9" fill="#374151" font-family="Inter, sans-serif">PROCESSING</text>
  <rect x="500" y="638" width="12" height="12" rx="2" fill="#F3E5F5" stroke="#7B1FA2"/>
  <text x="518" y="648" font-size="9" fill="#374151" font-family="Inter, sans-serif">STORAGE</text>
</svg>
