<?xml version="1.0" encoding="UTF-8"?>
<svg xmlns="http://www.w3.org/2000/svg" viewBox="0 0 980 1254" width="980" height="1254" font-family="Inter, -apple-system, Segoe UI, sans-serif">
<defs>
    <radialGradient id="glowA" cx="18%" cy="6%" r="55%">
      <stop offset="0%" stop-color="#7aa5ff" stop-opacity="0.14"/>
      <stop offset="100%" stop-color="#7aa5ff" stop-opacity="0"/>
    </radialGradient>
    <radialGradient id="glowB" cx="85%" cy="95%" r="60%">
      <stop offset="0%" stop-color="#34d399" stop-opacity="0.10"/>
      <stop offset="100%" stop-color="#34d399" stop-opacity="0"/>
    </radialGradient>
    <filter id="nodeGlow" x="-40%" y="-40%" width="180%" height="180%">
      <feDropShadow dx="0" dy="3" stdDeviation="5" flood-color="#000000" flood-opacity="0.55"/>
    </filter>
    <marker id="arr-source" markerWidth="9" markerHeight="7" refX="7.5" refY="3.5" orient="auto" markerUnits="strokeWidth"><polygon points="0 0, 9 3.5, 0 7" fill="#60a5fa"/></marker>
<marker id="arr-orchestration" markerWidth="9" markerHeight="7" refX="7.5" refY="3.5" orient="auto" markerUnits="strokeWidth"><polygon points="0 0, 9 3.5, 0 7" fill="#fb923c"/></marker>
<marker id="arr-processing" markerWidth="9" markerHeight="7" refX="7.5" refY="3.5" orient="auto" markerUnits="strokeWidth"><polygon points="0 0, 9 3.5, 0 7" fill="#22d3ee"/></marker>
<marker id="arr-storage" markerWidth="9" markerHeight="7" refX="7.5" refY="3.5" orient="auto" markerUnits="strokeWidth"><polygon points="0 0, 9 3.5, 0 7" fill="#a78bfa"/></marker>
<marker id="arr-monitoring" markerWidth="9" markerHeight="7" refX="7.5" refY="3.5" orient="auto" markerUnits="strokeWidth"><polygon points="0 0, 9 3.5, 0 7" fill="#fbbf24"/></marker>
<marker id="arr-consumer" markerWidth="9" markerHeight="7" refX="7.5" refY="3.5" orient="auto" markerUnits="strokeWidth"><polygon points="0 0, 9 3.5, 0 7" fill="#a3e635"/></marker>
  </defs>
<rect width="980" height="1254" rx="18" fill="#0b1020"/>
<rect width="980" height="1254" rx="18" fill="url(#glowA)"/>
<rect width="980" height="1254" rx="18" fill="url(#glowB)"/>
<text x="40" y="44" font-size="23" font-weight="800" fill="#eef2ff" font-family="Inter, -apple-system, Segoe UI, sans-serif" letter-spacing="-0.01em">Watchdog — Price Intelligence</text>
  <text x="40" y="68" font-size="12.5" fill="#8ea0c4" font-family="Inter, -apple-system, Segoe UI, sans-serif">Airflow 6-stage ETL · Celery Playwright fleet · lossless re-parse</text>
  <g transform="translate(854,30)"><g><rect x="0" y="0" width="86" height="24" rx="12" fill="#16264d" stroke="#35446e"/><text x="43" y="16.5" text-anchor="middle" font-size="10.5" font-weight="600" fill="#b3ccff" font-family="'JetBrains Mono', ui-monospace, monospace">TG + Email</text></g></g><g transform="translate(740.8,30)"><g><rect x="0" y="0" width="105.2" height="24" rx="12" fill="#16264d" stroke="#35446e"/><text x="52.6" y="16.5" text-anchor="middle" font-size="10.5" font-weight="600" fill="#b3ccff" font-family="'JetBrains Mono', ui-monospace, monospace">raw snapshots</text></g></g><g transform="translate(659.5999999999999,30)"><g><rect x="0" y="0" width="73.2" height="24" rx="12" fill="#16264d" stroke="#35446e"/><text x="36.6" y="16.5" text-anchor="middle" font-size="10.5" font-weight="600" fill="#b3ccff" font-family="'JetBrains Mono', ui-monospace, monospace">6 stages</text></g></g>
  <line x1="40" y1="86" x2="940" y2="86" stroke="#263252" stroke-width="1"/><rect x="40" y="104" width="900" height="138" rx="14" fill="#60a5fa" fill-opacity="0.055" stroke="#60a5fa" stroke-opacity="0.28"/>
  <rect x="54" y="104" width="54" height="3.5" rx="1.75" fill="#60a5fa"/>
  <g transform="translate(54,114)">
    <rect x="0" y="0" width="66.19999999999999" height="19" rx="9.5" fill="#60a5fa" fill-opacity="0.16" stroke="#60a5fa" stroke-opacity="0.5"/>
    <text x="33.099999999999994" y="13.5" text-anchor="middle" font-size="9.5" font-weight="700" fill="#60a5fa" font-family="'JetBrains Mono', ui-monospace, monospace" letter-spacing="0.12em">TARGETS</text>
  </g><rect x="40" y="262" width="900" height="138" rx="14" fill="#fb923c" fill-opacity="0.055" stroke="#fb923c" stroke-opacity="0.28"/>
  <rect x="54" y="262" width="54" height="3.5" rx="1.75" fill="#fb923c"/>
  <g transform="translate(54,272)">
    <rect x="0" y="0" width="72.8" height="19" rx="9.5" fill="#fb923c" fill-opacity="0.16" stroke="#fb923c" stroke-opacity="0.5"/>
    <text x="36.4" y="13.5" text-anchor="middle" font-size="9.5" font-weight="700" fill="#fb923c" font-family="'JetBrains Mono', ui-monospace, monospace" letter-spacing="0.12em">SCHEDULE</text>
  </g><rect x="40" y="420" width="900" height="138" rx="14" fill="#22d3ee" fill-opacity="0.055" stroke="#22d3ee" stroke-opacity="0.28"/>
  <rect x="54" y="420" width="54" height="3.5" rx="1.75" fill="#22d3ee"/>
  <g transform="translate(54,430)">
    <rect x="0" y="0" width="53" height="19" rx="9.5" fill="#22d3ee" fill-opacity="0.16" stroke="#22d3ee" stroke-opacity="0.5"/>
    <text x="26.5" y="13.5" text-anchor="middle" font-size="9.5" font-weight="700" fill="#22d3ee" font-family="'JetBrains Mono', ui-monospace, monospace" letter-spacing="0.12em">FLEET</text>
  </g><rect x="40" y="578" width="900" height="138" rx="14" fill="#a78bfa" fill-opacity="0.055" stroke="#a78bfa" stroke-opacity="0.28"/>
  <rect x="54" y="578" width="54" height="3.5" rx="1.75" fill="#a78bfa"/>
  <g transform="translate(54,588)">
    <rect x="0" y="0" width="39.8" height="19" rx="9.5" fill="#a78bfa" fill-opacity="0.16" stroke="#a78bfa" stroke-opacity="0.5"/>
    <text x="19.9" y="13.5" text-anchor="middle" font-size="9.5" font-weight="700" fill="#a78bfa" font-family="'JetBrains Mono', ui-monospace, monospace" letter-spacing="0.12em">RAW</text>
  </g><rect x="40" y="736" width="900" height="138" rx="14" fill="#a78bfa" fill-opacity="0.055" stroke="#a78bfa" stroke-opacity="0.28"/>
  <rect x="54" y="736" width="54" height="3.5" rx="1.75" fill="#a78bfa"/>
  <g transform="translate(54,746)">
    <rect x="0" y="0" width="79.4" height="19" rx="9.5" fill="#a78bfa" fill-opacity="0.16" stroke="#a78bfa" stroke-opacity="0.5"/>
    <text x="39.7" y="13.5" text-anchor="middle" font-size="9.5" font-weight="700" fill="#a78bfa" font-family="'JetBrains Mono', ui-monospace, monospace" letter-spacing="0.12em">WAREHOUSE</text>
  </g><rect x="40" y="894" width="900" height="138" rx="14" fill="#fbbf24" fill-opacity="0.055" stroke="#fbbf24" stroke-opacity="0.28"/>
  <rect x="54" y="894" width="54" height="3.5" rx="1.75" fill="#fbbf24"/>
  <g transform="translate(54,904)">
    <rect x="0" y="0" width="59.599999999999994" height="19" rx="9.5" fill="#fbbf24" fill-opacity="0.16" stroke="#fbbf24" stroke-opacity="0.5"/>
    <text x="29.799999999999997" y="13.5" text-anchor="middle" font-size="9.5" font-weight="700" fill="#fbbf24" font-family="'JetBrains Mono', ui-monospace, monospace" letter-spacing="0.12em">ALERTS</text>
  </g><rect x="40" y="1052" width="900" height="138" rx="14" fill="#a3e635" fill-opacity="0.055" stroke="#a3e635" stroke-opacity="0.28"/>
  <rect x="54" y="1052" width="54" height="3.5" rx="1.75" fill="#a3e635"/>
  <g transform="translate(54,1062)">
    <rect x="0" y="0" width="79.4" height="19" rx="9.5" fill="#a3e635" fill-opacity="0.16" stroke="#a3e635" stroke-opacity="0.5"/>
    <text x="39.7" y="13.5" text-anchor="middle" font-size="9.5" font-weight="700" fill="#a3e635" font-family="'JetBrains Mono', ui-monospace, monospace" letter-spacing="0.12em">ANALYTICS</text>
  </g><path d="M 490 226 L 490 294" fill="none" stroke="#60a5fa" stroke-width="1.8" stroke-dasharray="7 5" opacity="0.85" marker-end="url(#arr-source)">
    <animate attributeName="stroke-dashoffset" from="24" to="0" dur="1.1s" repeatCount="indefinite"/></path><g transform="translate(490,252)"><rect x="-16.1" y="0" width="32.2" height="17" rx="8.5" fill="#0b1020" stroke="#60a5fa" stroke-opacity="0.55"/><text x="0" y="12" text-anchor="middle" font-size="8.5" font-weight="600" fill="#60a5fa" font-family="'JetBrains Mono', ui-monospace, monospace">due</text></g><path d="M 490 384 C 490 419, 256 419, 256 452" fill="none" stroke="#fb923c" stroke-width="1.8" stroke-dasharray="7 5" opacity="0.85" marker-end="url(#arr-orchestration)">
    <animate attributeName="stroke-dashoffset" from="24" to="0" dur="1.1s" repeatCount="indefinite"/></path><g transform="translate(373,410)"><rect x="-29.6" y="0" width="59.2" height="17" rx="8.5" fill="#0b1020" stroke="#fb923c" stroke-opacity="0.55"/><text x="0" y="12" text-anchor="middle" font-size="8.5" font-weight="600" fill="#fb923c" font-family="'JetBrains Mono', ui-monospace, monospace">dispatch</text></g><path d="M 256 542 L 490 452" fill="none" stroke="#22d3ee" stroke-width="1.8" stroke-dasharray="7 5" opacity="0.85" marker-end="url(#arr-processing)">
    <animate attributeName="stroke-dashoffset" from="24" to="0" dur="1.1s" repeatCount="indefinite"/></path><g transform="translate(373,489)"><rect x="-24.200000000000003" y="0" width="48.400000000000006" height="17" rx="8.5" fill="#0b1020" stroke="#22d3ee" stroke-opacity="0.55"/><text x="0" y="12" text-anchor="middle" font-size="8.5" font-weight="600" fill="#22d3ee" font-family="'JetBrains Mono', ui-monospace, monospace">render</text></g><path d="M 490 542 L 490 610" fill="none" stroke="#22d3ee" stroke-width="1.8" stroke-dasharray="7 5" opacity="0.85" marker-end="url(#arr-processing)">
    <animate attributeName="stroke-dashoffset" from="24" to="0" dur="1.1s" repeatCount="indefinite"/></path><g transform="translate(490,568)"><rect x="-26.900000000000002" y="0" width="53.800000000000004" height="17" rx="8.5" fill="#0b1020" stroke="#22d3ee" stroke-opacity="0.55"/><text x="0" y="12" text-anchor="middle" font-size="8.5" font-weight="600" fill="#22d3ee" font-family="'JetBrains Mono', ui-monospace, monospace">persist</text></g><path d="M 490 700 L 724 452" fill="none" stroke="#a78bfa" stroke-width="1.8" stroke-dasharray="7 5" opacity="0.85" marker-end="url(#arr-storage)">
    <animate attributeName="stroke-dashoffset" from="24" to="0" dur="1.1s" repeatCount="indefinite"/></path><g transform="translate(607,568)"><rect x="-29.6" y="0" width="59.2" height="17" rx="8.5" fill="#0b1020" stroke="#a78bfa" stroke-opacity="0.55"/><text x="0" y="12" text-anchor="middle" font-size="8.5" font-weight="600" fill="#a78bfa" font-family="'JetBrains Mono', ui-monospace, monospace">re-parse</text></g><path d="M 724 542 C 724 656, 373 656, 373 768" fill="none" stroke="#22d3ee" stroke-width="1.8" stroke-dasharray="7 5" opacity="0.85" marker-end="url(#arr-processing)">
    <animate attributeName="stroke-dashoffset" from="24" to="0" dur="1.1s" repeatCount="indefinite"/></path><g transform="translate(548.5,647)"><rect x="-18.8" y="0" width="37.6" height="17" rx="8.5" fill="#0b1020" stroke="#22d3ee" stroke-opacity="0.55"/><text x="0" y="12" text-anchor="middle" font-size="8.5" font-weight="600" fill="#22d3ee" font-family="'JetBrains Mono', ui-monospace, monospace">load</text></g><path d="M 373 858 L 607 768" fill="none" stroke="#a78bfa" stroke-width="1.8" stroke-dasharray="7 5" opacity="0.85" marker-end="url(#arr-storage)">
    <animate attributeName="stroke-dashoffset" from="24" to="0" dur="1.1s" repeatCount="indefinite"/></path><path d="M 607 858 C 607 893, 256 893, 256 926" fill="none" stroke="#a78bfa" stroke-width="1.8" stroke-dasharray="7 5" opacity="0.85" marker-end="url(#arr-storage)">
    <animate attributeName="stroke-dashoffset" from="24" to="0" dur="1.1s" repeatCount="indefinite"/></path><g transform="translate(431.5,884)"><rect x="-18.8" y="0" width="37.6" height="17" rx="8.5" fill="#0b1020" stroke="#a78bfa" stroke-opacity="0.55"/><text x="0" y="12" text-anchor="middle" font-size="8.5" font-weight="600" fill="#a78bfa" font-family="'JetBrains Mono', ui-monospace, monospace">drop</text></g><path d="M 607 858 C 607 893, 490 893, 490 926" fill="none" stroke="#a78bfa" stroke-width="1.8" stroke-dasharray="7 5" opacity="0.85" marker-end="url(#arr-storage)">
    <animate attributeName="stroke-dashoffset" from="24" to="0" dur="1.1s" repeatCount="indefinite"/></path><path d="M 256 542 C 256 735, 724 735, 724 926" fill="none" stroke="#22d3ee" stroke-width="1.8" stroke-dasharray="7 5" opacity="0.85" marker-end="url(#arr-processing)">
    <animate attributeName="stroke-dashoffset" from="24" to="0" dur="1.1s" repeatCount="indefinite"/></path><g transform="translate(490,726)"><rect x="-32.3" y="0" width="64.6" height="17" rx="8.5" fill="#0b1020" stroke="#22d3ee" stroke-opacity="0.55"/><text x="0" y="12" text-anchor="middle" font-size="8.5" font-weight="600" fill="#22d3ee" font-family="'JetBrains Mono', ui-monospace, monospace">heartbeat</text></g><path d="M 607 858 C 607 972, 490 972, 490 1084" fill="none" stroke="#a78bfa" stroke-width="1.8" stroke-dasharray="7 5" opacity="0.85" marker-end="url(#arr-storage)">
    <animate attributeName="stroke-dashoffset" from="24" to="0" dur="1.1s" repeatCount="indefinite"/></path><g transform="translate(548.5,963)"><rect x="-21.5" y="0" width="43" height="17" rx="8.5" fill="#0b1020" stroke="#a78bfa" stroke-opacity="0.55"/><text x="0" y="12" text-anchor="middle" font-size="8.5" font-weight="600" fill="#a78bfa" font-family="'JetBrains Mono', ui-monospace, monospace">serve</text></g><g filter="url(#nodeGlow)">
    <rect x="380" y="138" width="220" height="88" rx="12" fill="#141d38" stroke="#60a5fa" stroke-width="1.6"/>
    <rect x="390" y="144" width="200" height="2.5" rx="1.25" fill="#60a5fa" fill-opacity="0.5"/>
  </g><circle cx="490" cy="162" r="17" fill="#ffffff" fill-opacity="0.07" stroke="#60a5fa" stroke-opacity="0.35"/>
      <g transform="translate(479.5,151.5) scale(0.875)"><path d="M23.5594 14.7228a.5269.5269 0 0 0-.0563-.1191c-.139-.2632-.4768-.3418-1.0074-.2321-1.6533.3411-2.2935.1312-2.5256-.0191 1.342-2.0482 2.445-4.522 3.0411-6.8297.2714-1.0507.7982-3.5237.1222-4.7316a1.5641 1.5641 0 0 0-.1509-.235C21.6931.9086 19.8007.0248 17.5099.0005c-1.4947-.0158-2.7705.3461-3.1161.4794a9.449 9.449 0 0 0-.5159-.0816 8.044 8.044 0 0 0-1.3114-.1278c-1.1822-.0184-2.2038.2642-3.0498.8406-.8573-.3211-4.7888-1.645-7.2219.0788C.9359 2.1526.3086 3.8733.4302 6.3043c.0409.818.5069 3.334 1.2423 5.7436.4598 1.5065.9387 2.7019 1.4334 3.582.553.9942 1.1259 1.5933 1.7143 1.7895.4474.1491 1.1327.1441 1.8581-.7279.8012-.9635 1.5903-1.8258 1.9446-2.2069.4351.2355.9064.3625 1.39.3772a.0569.0569 0 0 0 .0004.0041 11.0312 11.0312 0 0 0-.2472.3054c-.3389.4302-.4094.5197-1.5002.7443-.3102.064-1.1344.2339-1.1464.8115-.0025.1224.0329.2309.0919.3268.2269.4231.9216.6097 1.015.6331 1.3345.3335 2.5044.092 3.3714-.6787-.017 2.231.0775 4.4174.3454 5.0874.2212.5529.7618 1.9045 2.4692 1.9043.2505 0 .5263-.0291.8296-.0941 1.7819-.3821 2.5557-1.1696 2.855-2.9059.1503-.8707.4016-2.8753.5388-4.1012.0169-.0703.0357-.1207.057-.1362.0007-.0005.0697-.0471.4272.0307a.3673.3673 0 0 0 .0443.0068l.2539.0223.0149.001c.8468.0384 1.9114-.1426 2.5312-.4308.6438-.2988 1.8057-1.0323 1.5951-1.6698zM2.371 11.8765c-.7435-2.4358-1.1779-4.8851-1.2123-5.5719-.1086-2.1714.4171-3.6829 1.5623-4.4927 1.8367-1.2986 4.8398-.5408 6.108-.13-.0032.0032-.0066.0061-.0098.0094-2.0238 2.044-1.9758 5.536-1.9708 5.7495-.0002.0823.0066.1989.0162.3593.0348.5873.0996 1.6804-.0735 2.9184-.1609 1.1504.1937 2.2764.9728 3.0892.0806.0841.1648.1631.2518.2374-.3468.3714-1.1004 1.1926-1.9025 2.1576-.5677.6825-.9597.5517-1.0886.5087-.3919-.1307-.813-.5871-1.2381-1.3223-.4796-.839-.9635-2.0317-1.4155-3.5126zm6.0072 5.0871c-.1711-.0428-.3271-.1132-.4322-.1772.0889-.0394.2374-.0902.4833-.1409 1.2833-.2641 1.4815-.4506 1.9143-1.0002.0992-.126.2116-.2687.3673-.4426a.3549.3549 0 0 0 .0737-.1298c.1708-.1513.2724-.1099.4369-.0417.156.0646.3078.26.3695.4752.0291.1016.0619.2945-.0452.4444-.9043 1.2658-2.2216 1.2494-3.1676 1.0128zm2.094-3.988-.0525.141c-.133.3566-.2567.6881-.3334 1.003-.6674-.0021-1.3168-.2872-1.8105-.8024-.6279-.6551-.9131-1.5664-.7825-2.5004.1828-1.3079.1153-2.4468.079-3.0586-.005-.0857-.0095-.1607-.0122-.2199.2957-.2621 1.6659-.9962 2.6429-.7724.4459.1022.7176.4057.8305.928.5846 2.7038.0774 3.8307-.3302 4.7363-.084.1866-.1633.3629-.2311.5454zm7.3637 4.5725c-.0169.1768-.0358.376-.0618.5959l-.146.4383a.3547.3547 0 0 0-.0182.1077c-.0059.4747-.054.6489-.115.8693-.0634.2292-.1353.4891-.1794 1.0575-.11 1.4143-.8782 2.2267-2.4172 2.5565-1.5155.3251-1.7843-.4968-2.0212-1.2217a6.5824 6.5824 0 0 0-.0769-.2266c-.2154-.5858-.1911-1.4119-.1574-2.5551.0165-.5612-.0249-1.9013-.3302-2.6462.0044-.2932.0106-.5909.019-.8918a.3529.3529 0 0 0-.0153-.1126 1.4927 1.4927 0 0 0-.0439-.208c-.1226-.4283-.4213-.7866-.7797-.9351-.1424-.059-.4038-.1672-.7178-.0869.067-.276.1831-.5875.309-.9249l.0529-.142c.0595-.16.134-.3257.213-.5012.4265-.9476 1.0106-2.2453.3766-5.1772-.2374-1.0981-1.0304-1.6343-2.2324-1.5098-.7207.0746-1.3799.3654-1.7088.5321a5.6716 5.6716 0 0 0-.1958.1041c.0918-1.1064.4386-3.1741 1.7357-4.4823a4.0306 4.0306 0 0 1 .3033-.276.3532.3532 0 0 0 .1447-.0644c.7524-.5706 1.6945-.8506 2.802-.8325.4091.0067.8017.0339 1.1742.081 1.939.3544 3.2439 1.4468 4.0359 2.3827.8143.9623 1.2552 1.9315 1.4312 2.4543-1.3232-.1346-2.2234.1268-2.6797.779-.9926 1.4189.543 4.1729 1.2811 5.4964.1353.2426.2522.4522.2889.5413.2403.5825.5515.9713.7787 1.2552.0696.087.1372.1714.1885.245-.4008.1155-1.1208.3825-1.0552 1.717-.0123.1563-.0423.4469-.0834.8148-.0461.2077-.0702.4603-.0994.7662zm.8905-1.6211c-.0405-.8316.2691-.9185.5967-1.0105a2.8566 2.8566 0 0 0 .135-.0406 1.202 1.202 0 0 0 .1342.103c.5703.3765 1.5823.4213 3.0068.1344-.2016.1769-.5189.3994-.9533.6011-.4098.1903-1.0957.333-1.7473.3636-.7197.0336-1.0859-.0807-1.1721-.151zm.5695-9.2712c-.0059.3508-.0542.6692-.1054 1.0017-.055.3576-.112.7274-.1264 1.1762-.0142.4368.0404.8909.0932 1.3301.1066.887.216 1.8003-.2075 2.7014a3.5272 3.5272 0 0 1-.1876-.3856c-.0527-.1276-.1669-.3326-.3251-.6162-.6156-1.1041-2.0574-3.6896-1.3193-4.7446.3795-.5427 1.3408-.5661 2.1781-.463zm.2284 7.0137a12.3762 12.3762 0 0 0-.0853-.1074l-.0355-.0444c.7262-1.1995.5842-2.3862.4578-3.4385-.0519-.4318-.1009-.8396-.0885-1.2226.0129-.4061.0666-.7543.1185-1.0911.0639-.415.1288-.8443.1109-1.3505.0134-.0531.0188-.1158.0118-.1902-.0457-.4855-.5999-1.938-1.7294-3.253-.6076-.7073-1.4896-1.4972-2.6889-2.0395.5251-.1066 1.2328-.2035 2.0244-.1859 2.0515.0456 3.6746.8135 4.8242 2.2824a.908.908 0 0 1 .0667.1002c.7231 1.3556-.2762 6.2751-2.9867 10.5405zm-8.8166-6.1162c-.025.1794-.3089.4225-.6211.4225a.5821.5821 0 0 1-.0809-.0056c-.1873-.026-.3765-.144-.5059-.3156-.0458-.0605-.1203-.178-.1055-.2844.0055-.0401.0261-.0985.0925-.1488.1182-.0894.3518-.1226.6096-.0867.3163.0441.6426.1938.6113.4186zm7.9305-.4114c.0111.0792-.049.201-.1531.3102-.0683.0717-.212.1961-.4079.2232a.5456.5456 0 0 1-.075.0052c-.2935 0-.5414-.2344-.5607-.3717-.024-.1765.2641-.3106.5611-.352.297-.0414.6111.0088.6356.1851z" fill="#4169E1"/></g>
  <text x="490" y="201" text-anchor="middle" font-size="11" font-weight="600" fill="#eef2ff" font-family="Inter, -apple-system, Segoe UI, sans-serif">Targets Table</text><text x="490" y="216" text-anchor="middle" font-size="9" fill="#8ea0c4" font-family="'JetBrains Mono', ui-monospace, monospace">domain×region</text><g filter="url(#nodeGlow)">
    <rect x="380" y="296" width="220" height="88" rx="12" fill="#141d38" stroke="#fb923c" stroke-width="1.6"/>
    <rect x="390" y="302" width="200" height="2.5" rx="1.25" fill="#fb923c" fill-opacity="0.5"/>
  </g><circle cx="490" cy="320" r="17" fill="#ffffff" fill-opacity="0.07" stroke="#fb923c" stroke-opacity="0.35"/>
      <g transform="translate(479.5,309.5) scale(0.875)"><path d="M17.195 16.822l4.002-4.102C23.55 10.308 23.934 5.154 24 .43a.396.396 0 0 0-.246-.373.392.392 0 0 0-.437.09l-6.495 6.658-4.102-4.003C10.309.45 5.154.066.43 0H.423a.397.397 0 0 0-.277.683l6.658 6.494-4.003 4.103C.45 13.692.065 18.846 0 23.57a.398.398 0 0 0 .683.282l6.494-6.657 3.934 3.837.17.165c2.41 2.353 7.565 2.737 12.288 2.803h.006a.397.397 0 0 0 .277-.683l-6.657-6.495zm-.409-9.476c.04.115.05.24.031.344-.17.96-1.593 2.538-4.304 3.87a.597.597 0 0 0-.08-.079c1.432-3.155 1.828-5.61 1.175-7.322l3.058 2.984.12.203zm-.131 9.44a.73.73 0 0 1-.347.031c-.96-.171-2.537-1.594-3.87-4.307a.656.656 0 0 0 .08-.078l-.001.001c3.155 1.432 5.61 1.83 7.324 1.174l-2.969 3.043M23.568.392a.05.05 0 0 1 .052-.011c.018.006.03.024.029.043-.065 4.655-.437 9.726-2.703 12.05-1.53 1.565-4.326 1.419-8.283-.377.006-.037.021-.07.02-.108 0-.044-.017-.082-.026-.123 2.83-1.39 4.315-3.037 4.506-4.115.057-.322-.009-.542-.102-.688l6.507-6.67V.392zM.393.43A.045.045 0 0 1 .382.38C.39.36.403.343.425.35c4.655.065 9.727.438 12.05 2.703l.002.002c1.56 1.527 1.415 4.323-.379 8.28-.033-.005-.062-.02-.097-.02h-.008c-.045.001-.084.019-.126.027-1.39-2.83-3.037-4.314-4.115-4.506-.323-.057-.542.01-.688.103L.393.43zm11.94 11.563a.331.331 0 0 1-.327.335H12a.332.332 0 0 1-.004-.661c.172.016.333.144.335.326h.002zm-5.12 4.661a.722.722 0 0 1-.03-.345c.17-.96 1.595-2.54 4.309-3.873.013.016.019.035.033.05.013.012.03.017.044.028-1.434 3.158-1.83 5.613-1.177 7.326l-3.041-2.967m-.006-9.659a.735.735 0 0 1 .345-.031c.961.17 2.54 1.594 3.871 4.306a.597.597 0 0 0-.079.08c-2.167-.983-4.007-1.484-5.498-1.484-.68 0-1.289.103-1.825.308L7.128 7.35M.43 23.607c-.018.018-.038.015-.052.01-.019-.007-.028-.021-.028-.043.065-4.654.437-9.725 2.703-12.049 1.527-1.565 4.325-1.419 8.286.378-.006.035-.02.067-.02.104 0 .043.018.083.026.124-2.831 1.391-4.317 3.04-4.51 4.117-.057.322.01.542.103.688L.43 23.607zm23.144.042c-4.655-.065-9.726-.437-12.05-2.703l-.005-.006c-1.56-1.526-1.412-4.322.383-8.279.033.005.064.02.098.02h.009c.043 0 .08-.018.122-.027 1.39 2.832 3.036 4.317 4.115 4.51.083.014.16.021.23.021a.776.776 0 0 0 .45-.133l6.68 6.516c.02.02.016.04.01.052a.042.042 0 0 1-.042.029z" fill="#017CEE"/></g>
  <text x="490" y="359" text-anchor="middle" font-size="11" font-weight="600" fill="#eef2ff" font-family="Inter, -apple-system, Segoe UI, sans-serif">Airflow DAG</text><text x="490" y="374" text-anchor="middle" font-size="9" fill="#8ea0c4" font-family="'JetBrains Mono', ui-monospace, monospace">6 stages</text><g filter="url(#nodeGlow)">
    <rect x="146" y="454" width="220" height="88" rx="12" fill="#141d38" stroke="#22d3ee" stroke-width="1.6"/>
    <rect x="156" y="460" width="200" height="2.5" rx="1.25" fill="#22d3ee" fill-opacity="0.5"/>
  </g><circle cx="256" cy="478" r="17" fill="#ffffff" fill-opacity="0.07" stroke="#22d3ee" stroke-opacity="0.35"/>
      <g transform="translate(245.5,467.5) scale(0.875)"><path d="M2.303 0A2.298 2.298 0 0 0 0 2.303v19.394A2.298 2.298 0 0 0 2.303 24h19.394A2.298 2.298 0 0 0 24 21.697V2.303A2.298 2.298 0 0 0 21.697 0zm8.177 3.072c4.098 0 7.028 1.438 7.68 1.764l-1.194 2.55c-2.442-1.057-4.993-1.41-5.672-1.41-1.574 0-2.17.922-2.17 1.763v8.494c0 .869.596 1.791 2.17 1.791.679 0 3.23-.38 5.672-1.41l1.194 2.496c-.435.271-3.637 1.818-7.68 1.818-1.112 0-4.64-.244-4.64-4.64V7.713c0-4.397 3.528-4.64 4.64-4.64z" fill="#37814A"/></g>
  <text x="256" y="517" text-anchor="middle" font-size="11" font-weight="600" fill="#eef2ff" font-family="Inter, -apple-system, Segoe UI, sans-serif">Celery Workers</text><text x="256" y="532" text-anchor="middle" font-size="9" fill="#8ea0c4" font-family="'JetBrains Mono', ui-monospace, monospace">+ Redis</text><g filter="url(#nodeGlow)">
    <rect x="380" y="454" width="220" height="88" rx="12" fill="#141d38" stroke="#22d3ee" stroke-width="1.6"/>
    <rect x="390" y="460" width="200" height="2.5" rx="1.25" fill="#22d3ee" fill-opacity="0.5"/>
  </g><rect x="473" y="461" width="34" height="34" rx="9" fill="#34d399" fill-opacity="0.16" stroke="#34d399" stroke-opacity="0.7"/>
      <text x="490" y="483" text-anchor="middle" font-size="12" font-weight="800" fill="#34d399" font-family="'JetBrains Mono', ui-monospace, monospace">PW</text>
  <text x="490" y="517" text-anchor="middle" font-size="11" font-weight="600" fill="#eef2ff" font-family="Inter, -apple-system, Segoe UI, sans-serif">Playwright Scrape</text><text x="490" y="532" text-anchor="middle" font-size="9" fill="#8ea0c4" font-family="'JetBrains Mono', ui-monospace, monospace">anti-bot</text><g filter="url(#nodeGlow)">
    <rect x="614" y="454" width="220" height="88" rx="12" fill="#141d38" stroke="#22d3ee" stroke-width="1.6"/>
    <rect x="624" y="460" width="200" height="2.5" rx="1.25" fill="#22d3ee" fill-opacity="0.5"/>
  </g><circle cx="724" cy="478" r="17" fill="#ffffff" fill-opacity="0.07" stroke="#22d3ee" stroke-opacity="0.35"/>
      <g transform="translate(713.5,467.5) scale(0.875)"><path d="M14.25.18l.9.2.73.26.59.3.45.32.34.34.25.34.16.33.1.3.04.26.02.2-.01.13V8.5l-.05.63-.13.55-.21.46-.26.38-.3.31-.33.25-.35.19-.35.14-.33.1-.3.07-.26.04-.21.02H8.77l-.69.05-.59.14-.5.22-.41.27-.33.32-.27.35-.2.36-.15.37-.1.35-.07.32-.04.27-.02.21v3.06H3.17l-.21-.03-.28-.07-.32-.12-.35-.18-.36-.26-.36-.36-.35-.46-.32-.59-.28-.73-.21-.88-.14-1.05-.05-1.23.06-1.22.16-1.04.24-.87.32-.71.36-.57.4-.44.42-.33.42-.24.4-.16.36-.1.32-.05.24-.01h.16l.06.01h8.16v-.83H6.18l-.01-2.75-.02-.37.05-.34.11-.31.17-.28.25-.26.31-.23.38-.2.44-.18.51-.15.58-.12.64-.1.71-.06.77-.04.84-.02 1.27.05zm-6.3 1.98l-.23.33-.08.41.08.41.23.34.33.22.41.09.41-.09.33-.22.23-.34.08-.41-.08-.41-.23-.33-.33-.22-.41-.09-.41.09zm13.09 3.95l.28.06.32.12.35.18.36.27.36.35.35.47.32.59.28.73.21.88.14 1.04.05 1.23-.06 1.23-.16 1.04-.24.86-.32.71-.36.57-.4.45-.42.33-.42.24-.4.16-.36.09-.32.05-.24.02-.16-.01h-8.22v.82h5.84l.01 2.76.02.36-.05.34-.11.31-.17.29-.25.25-.31.24-.38.2-.44.17-.51.15-.58.13-.64.09-.71.07-.77.04-.84.01-1.27-.04-1.07-.14-.9-.2-.73-.25-.59-.3-.45-.33-.34-.34-.25-.34-.16-.33-.1-.3-.04-.25-.02-.2.01-.13v-5.34l.05-.64.13-.54.21-.46.26-.38.3-.32.33-.24.35-.2.35-.14.33-.1.3-.06.26-.04.21-.02.13-.01h5.84l.69-.05.59-.14.5-.21.41-.28.33-.32.27-.35.2-.36.15-.36.1-.35.07-.32.04-.28.02-.21V6.07h2.09l.14.01zm-6.47 14.25l-.23.33-.08.41.08.41.23.33.33.23.41.08.41-.08.33-.23.23-.33.08-.41-.08-.41-.23-.33-.33-.23-.41-.08-.41.08z" fill="#3776AB"/></g>
  <text x="724" y="517" text-anchor="middle" font-size="11" font-weight="600" fill="#eef2ff" font-family="Inter, -apple-system, Segoe UI, sans-serif">Parse/Normalize</text><text x="724" y="532" text-anchor="middle" font-size="9" fill="#8ea0c4" font-family="'JetBrains Mono', ui-monospace, monospace">USD base</text><g filter="url(#nodeGlow)">
    <rect x="380" y="612" width="220" height="88" rx="12" fill="#141d38" stroke="#a78bfa" stroke-width="1.6"/>
    <rect x="390" y="618" width="200" height="2.5" rx="1.25" fill="#a78bfa" fill-opacity="0.5"/>
  </g><circle cx="490" cy="636" r="17" fill="#ffffff" fill-opacity="0.07" stroke="#a78bfa" stroke-opacity="0.35"/>
      <g transform="translate(479.5,625.5) scale(0.875)"><path d="M12.043 23.968c.479-.004.953-.029 1.426-.094a11.805 11.805 0 003.146-.863 12.404 12.404 0 003.793-2.542 11.977 11.977 0 002.44-3.427 11.794 11.794 0 001.02-3.476c.149-1.16.135-2.346-.045-3.499a11.96 11.96 0 00-.793-2.788 11.197 11.197 0 00-.854-1.617c-1.168-1.837-2.861-3.314-4.81-4.3a12.835 12.835 0 00-2.172-.87h-.005c.119.063.24.132.345.201.12.074.239.146.351.225a8.93 8.93 0 011.559 1.33c1.063 1.145 1.797 2.548 2.218 4.041.284.982.434 1.998.495 3.017.044.743.044 1.491-.047 2.229-.149 1.27-.554 2.51-1.228 3.596a7.475 7.475 0 01-1.903 2.084c-1.244.928-2.877 1.482-4.436 1.114a3.916 3.916 0 01-.748-.258 4.692 4.692 0 01-.779-.45 6.08 6.08 0 01-1.244-1.105 6.507 6.507 0 01-1.049-1.747 7.366 7.366 0 01-.494-2.54c-.03-1.273.225-2.553.854-3.67a6.43 6.43 0 011.663-1.918c.225-.178.464-.333.704-.479l.016-.007a5.121 5.121 0 00-1.441-.12 4.963 4.963 0 00-1.228.24c-.359.12-.704.27-1.019.45a6.146 6.146 0 00-.733.494c-.211.18-.42.36-.615.555-1.123 1.153-1.768 2.682-2.022 4.256-.15.973-.15 1.96-.091 2.95.105 1.395.391 2.787.945 4.062a8.518 8.518 0 001.348 2.173 8.14 8.14 0 003.132 2.23 7.934 7.934 0 002.113.54c.074.015.149.015.209.015zm-2.934-.398a4.102 4.102 0 01-.45-.228 8.5 8.5 0 01-2.038-1.534c-1.094-1.137-1.827-2.566-2.247-4.08a15.184 15.184 0 01-.495-3.172 12.14 12.14 0 01.046-2.082c.135-1.257.495-2.501 1.124-3.58a6.889 6.889 0 011.783-2.053 6.23 6.23 0 011.633-.9 5.363 5.363 0 013.522-.045c.029 0 .029 0 .045.03.015.015.045.015.06.03.045.016.104.045.165.074.239.12.479.271.704.42a6.294 6.294 0 012.097 2.502c.42.914.615 1.934.631 2.938.014 1.079-.18 2.157-.645 3.146a6.42 6.42 0 01-2.638 2.832c.09.03.18.045.271.075.225.044.449.074.688.074 1.468.045 2.892-.66 3.94-1.647.195-.18.375-.375.54-.585.225-.27.435-.54.614-.823.239-.375.435-.75.614-1.154a8.112 8.112 0 00.509-1.664c.196-1.004.211-2.022.149-3.026-.135-2.022-.673-4.045-1.842-5.724a9.054 9.054 0 00-.555-.719 9.868 9.868 0 00-1.063-1.034 8.477 8.477 0 00-1.363-.915 9.927 9.927 0 00-1.692-.598l-.3-.06c-.209-.03-.42-.044-.634-.06a8.453 8.453 0 00-1.015.016c-.704.045-1.412.16-2.112.337C5.799 1.227 2.863 3.566 1.3 6.67A11.834 11.834 0 00.238 9.801a11.81 11.81 0 00-.104 3.775c.12 1.02.374 2.023.778 2.977.227.57.511 1.124.825 1.648 1.094 1.783 2.683 3.236 4.51 4.24.688.39 1.408.69 2.157.944.226.074.45.15.689.21z" fill="#000000"/></g>
  <text x="490" y="675" text-anchor="middle" font-size="11" font-weight="600" fill="#eef2ff" font-family="Inter, -apple-system, Segoe UI, sans-serif">HTML Snapshots</text><text x="490" y="690" text-anchor="middle" font-size="9" fill="#8ea0c4" font-family="'JetBrains Mono', ui-monospace, monospace">lossless</text><g filter="url(#nodeGlow)">
    <rect x="263" y="770" width="220" height="88" rx="12" fill="#141d38" stroke="#a78bfa" stroke-width="1.6"/>
    <rect x="273" y="776" width="200" height="2.5" rx="1.25" fill="#a78bfa" fill-opacity="0.5"/>
  </g><circle cx="373" cy="794" r="17" fill="#ffffff" fill-opacity="0.07" stroke="#a78bfa" stroke-opacity="0.35"/>
      <g transform="translate(362.5,783.5) scale(0.875)"><path d="M23.5594 14.7228a.5269.5269 0 0 0-.0563-.1191c-.139-.2632-.4768-.3418-1.0074-.2321-1.6533.3411-2.2935.1312-2.5256-.0191 1.342-2.0482 2.445-4.522 3.0411-6.8297.2714-1.0507.7982-3.5237.1222-4.7316a1.5641 1.5641 0 0 0-.1509-.235C21.6931.9086 19.8007.0248 17.5099.0005c-1.4947-.0158-2.7705.3461-3.1161.4794a9.449 9.449 0 0 0-.5159-.0816 8.044 8.044 0 0 0-1.3114-.1278c-1.1822-.0184-2.2038.2642-3.0498.8406-.8573-.3211-4.7888-1.645-7.2219.0788C.9359 2.1526.3086 3.8733.4302 6.3043c.0409.818.5069 3.334 1.2423 5.7436.4598 1.5065.9387 2.7019 1.4334 3.582.553.9942 1.1259 1.5933 1.7143 1.7895.4474.1491 1.1327.1441 1.8581-.7279.8012-.9635 1.5903-1.8258 1.9446-2.2069.4351.2355.9064.3625 1.39.3772a.0569.0569 0 0 0 .0004.0041 11.0312 11.0312 0 0 0-.2472.3054c-.3389.4302-.4094.5197-1.5002.7443-.3102.064-1.1344.2339-1.1464.8115-.0025.1224.0329.2309.0919.3268.2269.4231.9216.6097 1.015.6331 1.3345.3335 2.5044.092 3.3714-.6787-.017 2.231.0775 4.4174.3454 5.0874.2212.5529.7618 1.9045 2.4692 1.9043.2505 0 .5263-.0291.8296-.0941 1.7819-.3821 2.5557-1.1696 2.855-2.9059.1503-.8707.4016-2.8753.5388-4.1012.0169-.0703.0357-.1207.057-.1362.0007-.0005.0697-.0471.4272.0307a.3673.3673 0 0 0 .0443.0068l.2539.0223.0149.001c.8468.0384 1.9114-.1426 2.5312-.4308.6438-.2988 1.8057-1.0323 1.5951-1.6698zM2.371 11.8765c-.7435-2.4358-1.1779-4.8851-1.2123-5.5719-.1086-2.1714.4171-3.6829 1.5623-4.4927 1.8367-1.2986 4.8398-.5408 6.108-.13-.0032.0032-.0066.0061-.0098.0094-2.0238 2.044-1.9758 5.536-1.9708 5.7495-.0002.0823.0066.1989.0162.3593.0348.5873.0996 1.6804-.0735 2.9184-.1609 1.1504.1937 2.2764.9728 3.0892.0806.0841.1648.1631.2518.2374-.3468.3714-1.1004 1.1926-1.9025 2.1576-.5677.6825-.9597.5517-1.0886.5087-.3919-.1307-.813-.5871-1.2381-1.3223-.4796-.839-.9635-2.0317-1.4155-3.5126zm6.0072 5.0871c-.1711-.0428-.3271-.1132-.4322-.1772.0889-.0394.2374-.0902.4833-.1409 1.2833-.2641 1.4815-.4506 1.9143-1.0002.0992-.126.2116-.2687.3673-.4426a.3549.3549 0 0 0 .0737-.1298c.1708-.1513.2724-.1099.4369-.0417.156.0646.3078.26.3695.4752.0291.1016.0619.2945-.0452.4444-.9043 1.2658-2.2216 1.2494-3.1676 1.0128zm2.094-3.988-.0525.141c-.133.3566-.2567.6881-.3334 1.003-.6674-.0021-1.3168-.2872-1.8105-.8024-.6279-.6551-.9131-1.5664-.7825-2.5004.1828-1.3079.1153-2.4468.079-3.0586-.005-.0857-.0095-.1607-.0122-.2199.2957-.2621 1.6659-.9962 2.6429-.7724.4459.1022.7176.4057.8305.928.5846 2.7038.0774 3.8307-.3302 4.7363-.084.1866-.1633.3629-.2311.5454zm7.3637 4.5725c-.0169.1768-.0358.376-.0618.5959l-.146.4383a.3547.3547 0 0 0-.0182.1077c-.0059.4747-.054.6489-.115.8693-.0634.2292-.1353.4891-.1794 1.0575-.11 1.4143-.8782 2.2267-2.4172 2.5565-1.5155.3251-1.7843-.4968-2.0212-1.2217a6.5824 6.5824 0 0 0-.0769-.2266c-.2154-.5858-.1911-1.4119-.1574-2.5551.0165-.5612-.0249-1.9013-.3302-2.6462.0044-.2932.0106-.5909.019-.8918a.3529.3529 0 0 0-.0153-.1126 1.4927 1.4927 0 0 0-.0439-.208c-.1226-.4283-.4213-.7866-.7797-.9351-.1424-.059-.4038-.1672-.7178-.0869.067-.276.1831-.5875.309-.9249l.0529-.142c.0595-.16.134-.3257.213-.5012.4265-.9476 1.0106-2.2453.3766-5.1772-.2374-1.0981-1.0304-1.6343-2.2324-1.5098-.7207.0746-1.3799.3654-1.7088.5321a5.6716 5.6716 0 0 0-.1958.1041c.0918-1.1064.4386-3.1741 1.7357-4.4823a4.0306 4.0306 0 0 1 .3033-.276.3532.3532 0 0 0 .1447-.0644c.7524-.5706 1.6945-.8506 2.802-.8325.4091.0067.8017.0339 1.1742.081 1.939.3544 3.2439 1.4468 4.0359 2.3827.8143.9623 1.2552 1.9315 1.4312 2.4543-1.3232-.1346-2.2234.1268-2.6797.779-.9926 1.4189.543 4.1729 1.2811 5.4964.1353.2426.2522.4522.2889.5413.2403.5825.5515.9713.7787 1.2552.0696.087.1372.1714.1885.245-.4008.1155-1.1208.3825-1.0552 1.717-.0123.1563-.0423.4469-.0834.8148-.0461.2077-.0702.4603-.0994.7662zm.8905-1.6211c-.0405-.8316.2691-.9185.5967-1.0105a2.8566 2.8566 0 0 0 .135-.0406 1.202 1.202 0 0 0 .1342.103c.5703.3765 1.5823.4213 3.0068.1344-.2016.1769-.5189.3994-.9533.6011-.4098.1903-1.0957.333-1.7473.3636-.7197.0336-1.0859-.0807-1.1721-.151zm.5695-9.2712c-.0059.3508-.0542.6692-.1054 1.0017-.055.3576-.112.7274-.1264 1.1762-.0142.4368.0404.8909.0932 1.3301.1066.887.216 1.8003-.2075 2.7014a3.5272 3.5272 0 0 1-.1876-.3856c-.0527-.1276-.1669-.3326-.3251-.6162-.6156-1.1041-2.0574-3.6896-1.3193-4.7446.3795-.5427 1.3408-.5661 2.1781-.463zm.2284 7.0137a12.3762 12.3762 0 0 0-.0853-.1074l-.0355-.0444c.7262-1.1995.5842-2.3862.4578-3.4385-.0519-.4318-.1009-.8396-.0885-1.2226.0129-.4061.0666-.7543.1185-1.0911.0639-.415.1288-.8443.1109-1.3505.0134-.0531.0188-.1158.0118-.1902-.0457-.4855-.5999-1.938-1.7294-3.253-.6076-.7073-1.4896-1.4972-2.6889-2.0395.5251-.1066 1.2328-.2035 2.0244-.1859 2.0515.0456 3.6746.8135 4.8242 2.2824a.908.908 0 0 1 .0667.1002c.7231 1.3556-.2762 6.2751-2.9867 10.5405zm-8.8166-6.1162c-.025.1794-.3089.4225-.6211.4225a.5821.5821 0 0 1-.0809-.0056c-.1873-.026-.3765-.144-.5059-.3156-.0458-.0605-.1203-.178-.1055-.2844.0055-.0401.0261-.0985.0925-.1488.1182-.0894.3518-.1226.6096-.0867.3163.0441.6426.1938.6113.4186zm7.9305-.4114c.0111.0792-.049.201-.1531.3102-.0683.0717-.212.1961-.4079.2232a.5456.5456 0 0 1-.075.0052c-.2935 0-.5414-.2344-.5607-.3717-.024-.1765.2641-.3106.5611-.352.297-.0414.6111.0088.6356.1851z" fill="#4169E1"/></g>
  <text x="373" y="842" text-anchor="middle" font-size="11" font-weight="600" fill="#eef2ff" font-family="Inter, -apple-system, Segoe UI, sans-serif">Postgres Star</text><g filter="url(#nodeGlow)">
    <rect x="497" y="770" width="220" height="88" rx="12" fill="#141d38" stroke="#a78bfa" stroke-width="1.6"/>
    <rect x="507" y="776" width="200" height="2.5" rx="1.25" fill="#a78bfa" fill-opacity="0.5"/>
  </g><circle cx="607" cy="794" r="17" fill="#ffffff" fill-opacity="0.07" stroke="#a78bfa" stroke-opacity="0.35"/>
      <g transform="translate(596.5,783.5) scale(0.875)"><path d="M23.5594 14.7228a.5269.5269 0 0 0-.0563-.1191c-.139-.2632-.4768-.3418-1.0074-.2321-1.6533.3411-2.2935.1312-2.5256-.0191 1.342-2.0482 2.445-4.522 3.0411-6.8297.2714-1.0507.7982-3.5237.1222-4.7316a1.5641 1.5641 0 0 0-.1509-.235C21.6931.9086 19.8007.0248 17.5099.0005c-1.4947-.0158-2.7705.3461-3.1161.4794a9.449 9.449 0 0 0-.5159-.0816 8.044 8.044 0 0 0-1.3114-.1278c-1.1822-.0184-2.2038.2642-3.0498.8406-.8573-.3211-4.7888-1.645-7.2219.0788C.9359 2.1526.3086 3.8733.4302 6.3043c.0409.818.5069 3.334 1.2423 5.7436.4598 1.5065.9387 2.7019 1.4334 3.582.553.9942 1.1259 1.5933 1.7143 1.7895.4474.1491 1.1327.1441 1.8581-.7279.8012-.9635 1.5903-1.8258 1.9446-2.2069.4351.2355.9064.3625 1.39.3772a.0569.0569 0 0 0 .0004.0041 11.0312 11.0312 0 0 0-.2472.3054c-.3389.4302-.4094.5197-1.5002.7443-.3102.064-1.1344.2339-1.1464.8115-.0025.1224.0329.2309.0919.3268.2269.4231.9216.6097 1.015.6331 1.3345.3335 2.5044.092 3.3714-.6787-.017 2.231.0775 4.4174.3454 5.0874.2212.5529.7618 1.9045 2.4692 1.9043.2505 0 .5263-.0291.8296-.0941 1.7819-.3821 2.5557-1.1696 2.855-2.9059.1503-.8707.4016-2.8753.5388-4.1012.0169-.0703.0357-.1207.057-.1362.0007-.0005.0697-.0471.4272.0307a.3673.3673 0 0 0 .0443.0068l.2539.0223.0149.001c.8468.0384 1.9114-.1426 2.5312-.4308.6438-.2988 1.8057-1.0323 1.5951-1.6698zM2.371 11.8765c-.7435-2.4358-1.1779-4.8851-1.2123-5.5719-.1086-2.1714.4171-3.6829 1.5623-4.4927 1.8367-1.2986 4.8398-.5408 6.108-.13-.0032.0032-.0066.0061-.0098.0094-2.0238 2.044-1.9758 5.536-1.9708 5.7495-.0002.0823.0066.1989.0162.3593.0348.5873.0996 1.6804-.0735 2.9184-.1609 1.1504.1937 2.2764.9728 3.0892.0806.0841.1648.1631.2518.2374-.3468.3714-1.1004 1.1926-1.9025 2.1576-.5677.6825-.9597.5517-1.0886.5087-.3919-.1307-.813-.5871-1.2381-1.3223-.4796-.839-.9635-2.0317-1.4155-3.5126zm6.0072 5.0871c-.1711-.0428-.3271-.1132-.4322-.1772.0889-.0394.2374-.0902.4833-.1409 1.2833-.2641 1.4815-.4506 1.9143-1.0002.0992-.126.2116-.2687.3673-.4426a.3549.3549 0 0 0 .0737-.1298c.1708-.1513.2724-.1099.4369-.0417.156.0646.3078.26.3695.4752.0291.1016.0619.2945-.0452.4444-.9043 1.2658-2.2216 1.2494-3.1676 1.0128zm2.094-3.988-.0525.141c-.133.3566-.2567.6881-.3334 1.003-.6674-.0021-1.3168-.2872-1.8105-.8024-.6279-.6551-.9131-1.5664-.7825-2.5004.1828-1.3079.1153-2.4468.079-3.0586-.005-.0857-.0095-.1607-.0122-.2199.2957-.2621 1.6659-.9962 2.6429-.7724.4459.1022.7176.4057.8305.928.5846 2.7038.0774 3.8307-.3302 4.7363-.084.1866-.1633.3629-.2311.5454zm7.3637 4.5725c-.0169.1768-.0358.376-.0618.5959l-.146.4383a.3547.3547 0 0 0-.0182.1077c-.0059.4747-.054.6489-.115.8693-.0634.2292-.1353.4891-.1794 1.0575-.11 1.4143-.8782 2.2267-2.4172 2.5565-1.5155.3251-1.7843-.4968-2.0212-1.2217a6.5824 6.5824 0 0 0-.0769-.2266c-.2154-.5858-.1911-1.4119-.1574-2.5551.0165-.5612-.0249-1.9013-.3302-2.6462.0044-.2932.0106-.5909.019-.8918a.3529.3529 0 0 0-.0153-.1126 1.4927 1.4927 0 0 0-.0439-.208c-.1226-.4283-.4213-.7866-.7797-.9351-.1424-.059-.4038-.1672-.7178-.0869.067-.276.1831-.5875.309-.9249l.0529-.142c.0595-.16.134-.3257.213-.5012.4265-.9476 1.0106-2.2453.3766-5.1772-.2374-1.0981-1.0304-1.6343-2.2324-1.5098-.7207.0746-1.3799.3654-1.7088.5321a5.6716 5.6716 0 0 0-.1958.1041c.0918-1.1064.4386-3.1741 1.7357-4.4823a4.0306 4.0306 0 0 1 .3033-.276.3532.3532 0 0 0 .1447-.0644c.7524-.5706 1.6945-.8506 2.802-.8325.4091.0067.8017.0339 1.1742.081 1.939.3544 3.2439 1.4468 4.0359 2.3827.8143.9623 1.2552 1.9315 1.4312 2.4543-1.3232-.1346-2.2234.1268-2.6797.779-.9926 1.4189.543 4.1729 1.2811 5.4964.1353.2426.2522.4522.2889.5413.2403.5825.5515.9713.7787 1.2552.0696.087.1372.1714.1885.245-.4008.1155-1.1208.3825-1.0552 1.717-.0123.1563-.0423.4469-.0834.8148-.0461.2077-.0702.4603-.0994.7662zm.8905-1.6211c-.0405-.8316.2691-.9185.5967-1.0105a2.8566 2.8566 0 0 0 .135-.0406 1.202 1.202 0 0 0 .1342.103c.5703.3765 1.5823.4213 3.0068.1344-.2016.1769-.5189.3994-.9533.6011-.4098.1903-1.0957.333-1.7473.3636-.7197.0336-1.0859-.0807-1.1721-.151zm.5695-9.2712c-.0059.3508-.0542.6692-.1054 1.0017-.055.3576-.112.7274-.1264 1.1762-.0142.4368.0404.8909.0932 1.3301.1066.887.216 1.8003-.2075 2.7014a3.5272 3.5272 0 0 1-.1876-.3856c-.0527-.1276-.1669-.3326-.3251-.6162-.6156-1.1041-2.0574-3.6896-1.3193-4.7446.3795-.5427 1.3408-.5661 2.1781-.463zm.2284 7.0137a12.3762 12.3762 0 0 0-.0853-.1074l-.0355-.0444c.7262-1.1995.5842-2.3862.4578-3.4385-.0519-.4318-.1009-.8396-.0885-1.2226.0129-.4061.0666-.7543.1185-1.0911.0639-.415.1288-.8443.1109-1.3505.0134-.0531.0188-.1158.0118-.1902-.0457-.4855-.5999-1.938-1.7294-3.253-.6076-.7073-1.4896-1.4972-2.6889-2.0395.5251-.1066 1.2328-.2035 2.0244-.1859 2.0515.0456 3.6746.8135 4.8242 2.2824a.908.908 0 0 1 .0667.1002c.7231 1.3556-.2762 6.2751-2.9867 10.5405zm-8.8166-6.1162c-.025.1794-.3089.4225-.6211.4225a.5821.5821 0 0 1-.0809-.0056c-.1873-.026-.3765-.144-.5059-.3156-.0458-.0605-.1203-.178-.1055-.2844.0055-.0401.0261-.0985.0925-.1488.1182-.0894.3518-.1226.6096-.0867.3163.0441.6426.1938.6113.4186zm7.9305-.4114c.0111.0792-.049.201-.1531.3102-.0683.0717-.212.1961-.4079.2232a.5456.5456 0 0 1-.075.0052c-.2935 0-.5414-.2344-.5607-.3717-.024-.1765.2641-.3106.5611-.352.297-.0414.6111.0088.6356.1851z" fill="#4169E1"/></g>
  <text x="607" y="842" text-anchor="middle" font-size="11" font-weight="600" fill="#eef2ff" font-family="Inter, -apple-system, Segoe UI, sans-serif">Fact Snapshots</text><g filter="url(#nodeGlow)">
    <rect x="146" y="928" width="220" height="88" rx="12" fill="#141d38" stroke="#fbbf24" stroke-width="1.6"/>
    <rect x="156" y="934" width="200" height="2.5" rx="1.25" fill="#fbbf24" fill-opacity="0.5"/>
  </g><circle cx="256" cy="952" r="17" fill="#ffffff" fill-opacity="0.07" stroke="#fbbf24" stroke-opacity="0.35"/>
      <g transform="translate(245.5,941.5) scale(0.875)"><path d="M11.944 0A12 12 0 0 0 0 12a12 12 0 0 0 12 12 12 12 0 0 0 12-12A12 12 0 0 0 12 0a12 12 0 0 0-.056 0zm4.962 7.224c.1-.002.321.023.465.14a.506.506 0 0 1 .171.325c.016.093.036.306.02.472-.18 1.898-.962 6.502-1.36 8.627-.168.9-.499 1.201-.82 1.23-.696.065-1.225-.46-1.9-.902-1.056-.693-1.653-1.124-2.678-1.8-1.185-.78-.417-1.21.258-1.91.177-.184 3.247-2.977 3.307-3.23.007-.032.014-.15-.056-.212s-.174-.041-.249-.024c-.106.024-1.793 1.14-5.061 3.345-.48.33-.913.49-1.302.48-.428-.008-1.252-.241-1.865-.44-.752-.245-1.349-.374-1.297-.789.027-.216.325-.437.893-.663 3.498-1.524 5.83-2.529 6.998-3.014 3.332-1.386 4.025-1.627 4.476-1.635z" fill="#26A5E4"/></g>
  <text x="256" y="1000" text-anchor="middle" font-size="11" font-weight="600" fill="#eef2ff" font-family="Inter, -apple-system, Segoe UI, sans-serif">Telegram</text><g filter="url(#nodeGlow)">
    <rect x="380" y="928" width="220" height="88" rx="12" fill="#141d38" stroke="#fbbf24" stroke-width="1.6"/>
    <rect x="390" y="934" width="200" height="2.5" rx="1.25" fill="#fbbf24" fill-opacity="0.5"/>
  </g><circle cx="490" cy="952" r="17" fill="#ffffff" fill-opacity="0.07" stroke="#fbbf24" stroke-opacity="0.35"/>
      <g transform="translate(479.5,941.5) scale(0.875)"><path d="M24 5.457v13.909c0 .904-.732 1.636-1.636 1.636h-3.819V11.73L12 16.64l-6.545-4.91v9.273H1.636A1.636 1.636 0 0 1 0 19.366V5.457c0-2.023 2.309-3.178 3.927-1.964L5.455 4.64 12 9.548l6.545-4.91 1.528-1.145C21.69 2.28 24 3.434 24 5.457z" fill="#EA4335"/></g>
  <text x="490" y="1000" text-anchor="middle" font-size="11" font-weight="600" fill="#eef2ff" font-family="Inter, -apple-system, Segoe UI, sans-serif">Email SMTP</text><g filter="url(#nodeGlow)">
    <rect x="614" y="928" width="220" height="88" rx="12" fill="#141d38" stroke="#fbbf24" stroke-width="1.6"/>
    <rect x="624" y="934" width="200" height="2.5" rx="1.25" fill="#fbbf24" fill-opacity="0.5"/>
  </g><circle cx="724" cy="952" r="17" fill="#ffffff" fill-opacity="0.07" stroke="#fbbf24" stroke-opacity="0.35"/>
      <g transform="translate(713.5,941.5) scale(0.875)"><path d="M12 0C5.373 0 0 5.372 0 12c0 6.627 5.373 12 12 12s12-5.373 12-12c0-6.628-5.373-12-12-12zm0 22.46c-1.885 0-3.414-1.26-3.414-2.814h6.828c0 1.553-1.528 2.813-3.414 2.813zm5.64-3.745H6.36v-2.046h11.28v2.046zm-.04-3.098H6.391c-.037-.043-.075-.086-.111-.13-1.155-1.401-1.427-2.133-1.69-2.879-.005-.025 1.4.287 2.395.511 0 0 .513.119 1.262.255-.72-.843-1.147-1.915-1.147-3.01 0-2.406 1.845-4.508 1.18-6.207.648.053 1.34 1.367 1.387 3.422.689-.951.977-2.69.977-3.755 0-1.103.727-2.385 1.454-2.429-.648 1.069.168 1.984.894 4.256.272.854.237 2.29.447 3.201.07-1.892.395-4.652 1.595-5.605-.529 1.2.079 2.702.494 3.424.671 1.164 1.078 2.047 1.078 3.716a4.642 4.642 0 01-1.11 2.996c.792-.149 1.34-.283 1.34-.283l2.573-.502s-.374 1.538-1.81 3.019z" fill="#E6522C"/></g>
  <text x="724" y="1000" text-anchor="middle" font-size="11" font-weight="600" fill="#eef2ff" font-family="Inter, -apple-system, Segoe UI, sans-serif">Scraper Health</text><g filter="url(#nodeGlow)">
    <rect x="380" y="1086" width="220" height="88" rx="12" fill="#141d38" stroke="#a3e635" stroke-width="1.6"/>
    <rect x="390" y="1092" width="200" height="2.5" rx="1.25" fill="#a3e635" fill-opacity="0.5"/>
  </g><circle cx="490" cy="1110" r="17" fill="#ffffff" fill-opacity="0.07" stroke="#a3e635" stroke-opacity="0.35"/>
      <g transform="translate(479.5,1099.5) scale(0.875)"><path d="M16.673 11.32l6.862-3.618c.233-.136.554.12.442.387L20.463 17.1zm-8.556-.229l3.473-5.187c.203-.328.578-.316.793-.028l7.886 11.75zm-3.375 7.25c-.28 0-.835-.284-.993-.716l-3.72-9.46c-.118-.331.139-.614.48-.464l19.474 10.306c-.149.147-.453.337-.72.334z" fill="#FF4B4B"/></g>
  <text x="490" y="1149" text-anchor="middle" font-size="11" font-weight="600" fill="#eef2ff" font-family="Inter, -apple-system, Segoe UI, sans-serif">Streamlit Analytics</text><text x="490" y="1164" text-anchor="middle" font-size="9" fill="#8ea0c4" font-family="'JetBrains Mono', ui-monospace, monospace">trends + hi/lo</text><line x1="40" y1="1202" x2="940" y2="1202" stroke="#263252" stroke-width="1"/>
  <text x="40" y="1230" font-size="10.5" font-weight="600" fill="#8ea0c4" font-family="'JetBrains Mono', ui-monospace, monospace">◈ Mohammed Zakaria — Data Engineering Portfolio</text><g transform="translate(870,1224)"><circle cx="0" cy="0" r="4" fill="#a3e635"/><text x="9" y="3.5" font-size="9" font-weight="600" fill="#8ea0c4" font-family="'JetBrains Mono', ui-monospace, monospace" letter-spacing="0.08em">CONSUMER</text></g><g transform="translate(776,1224)"><circle cx="0" cy="0" r="4" fill="#fbbf24"/><text x="9" y="3.5" font-size="9" font-weight="600" fill="#8ea0c4" font-family="'JetBrains Mono', ui-monospace, monospace" letter-spacing="0.08em">MONITORING</text></g><g transform="translate(700,1224)"><circle cx="0" cy="0" r="4" fill="#a78bfa"/><text x="9" y="3.5" font-size="9" font-weight="600" fill="#8ea0c4" font-family="'JetBrains Mono', ui-monospace, monospace" letter-spacing="0.08em">STORAGE</text></g><g transform="translate(606,1224)"><circle cx="0" cy="0" r="4" fill="#22d3ee"/><text x="9" y="3.5" font-size="9" font-weight="600" fill="#8ea0c4" font-family="'JetBrains Mono', ui-monospace, monospace" letter-spacing="0.08em">PROCESSING</text></g><g transform="translate(494,1224)"><circle cx="0" cy="0" r="4" fill="#fb923c"/><text x="9" y="3.5" font-size="9" font-weight="600" fill="#8ea0c4" font-family="'JetBrains Mono', ui-monospace, monospace" letter-spacing="0.08em">ORCHESTRATION</text></g><g transform="translate(418,1224)"><circle cx="0" cy="0" r="4" fill="#60a5fa"/><text x="9" y="3.5" font-size="9" font-weight="600" fill="#8ea0c4" font-family="'JetBrains Mono', ui-monospace, monospace" letter-spacing="0.08em">SOURCES</text></g>
</svg>
